<svg version="1.1" id="Layer_1" xmlns="http://www.w3.org/2000/svg" x="0" y="0" viewBox="0 0 170.6 43.2" xml:space="preserve"><style>.st1{fill:#95a5a6}</style><path fill="#f0f3f4" d="M0 0h170.6v43.2H0z"/><path class="st1" d="M26.3 28c-.5-.6-.2-1.1 0-1.7 1.7-4.1 3.4-8.2 5.1-12.2.3-.7.7-1.2 1.6-1 1 1.8 1.8 3.6 2.4 5.6-1.3 3.2-2.9 6.4-4.1 9.7h-4.8c0-.2-.1-.3-.2-.4zm15.6-8c1.8 3.5 3.1 7.2 4.7 10.8 1.2 2.7 1.2 2.8-1.9 2.8-2.8 0-2.8 0-3.9-2.6l-1.2-2.7v-.1c-.9-2.2-1.7-4.4-2.6-6.6 1.7-.2 3.1-1.4 4.9-1.6zm60.5 2.2v-5.1c0-.4-.1-.9.6-.8 1.9.1 3.8-.2 5.6.2 2.9.8 4.8 3.4 4.5 6.3-.3 2.9-2.7 5.2-5.6 5.4-1.4.1-2.8 0-4.2.1-.8 0-.9-.3-.9-1v-5.1zm4-3.9c-1.8 0-1.8 0-1.8 1.9v4.2c0 2.2-.5 2 2 2 2.7 0 4.4-1.6 4.4-4.1 0-2.6-1.7-4-4.6-4zm-6.2 4c0 3.4-2.7 6.2-6.2 6.2-3.4 0-6.2-2.7-6.2-6.2 0-3.4 2.8-6.2 6.2-6.2 3.4 0 6.2 2.8 6.2 6.2zM94 26.5c2.3 0 4-1.8 4.1-4.2 0-2.4-1.8-4.3-4.1-4.3-2.2 0-4 1.9-4 4.2-.1 2.5 1.7 4.3 4 4.3zm21.3-4.2v-4.9c0-.7.1-1 .9-1 2.3.1 4.5.1 6.8 0 .8 0 .9.4.9 1 0 .7-.2 1-.9 1-1.5-.1-3 0-4.5 0-.8 0-1.1.2-1 1 .1.4 0 .9 0 1.3-.1.6.2.8.8.8h2.4c.8-.1.9.3.9 1s-.2.9-.9.9c-.6-.1-1.1.1-1.7 0-1.3-.2-1.5.4-1.6 1.6-.1 1.4.4 1.8 1.7 1.6 1.3-.1 2.6 0 4 0 .8 0 .8.4.8 1s-.1 1-.8 1h-6.9c-.7 0-.8-.3-.8-.9-.1-2-.1-3.7-.1-5.4zm23.5-.2c1.6-1.7 2.9-3 4.1-4.4 1-1.3 2.1-1.5 3.7-1.2-1.5 1.7-3 3.3-4.5 4.9-.6.6-.6 1 0 1.5 1.7 1.7 3.3 3.4 5 5.2-1.5.4-2.6.1-3.7-1.1-1.4-1.5-3.1-2.8-4.6-4.2 0 1.3-.1 2.9 0 4.5 0 .9-.4.9-1 .9s-1.1 0-1-.9c.1-3.4 0-6.9 0-10.3 0-.8.4-.8 1-.8s1.1-.1 1.1.8c-.1 1.6-.1 3.1-.1 5.1zm-71.5-1.7v3.1c.1 1.9 1.2 3 2.9 3 1.8 0 3-1.1 3.1-3 .1-2.1.1-4.1 0-6.2 0-.8.1-1.1 1-1 .7 0 1.2 0 1.2 1-.1 2.2 0 4.4-.1 6.6-.2 2.8-2.1 4.5-4.8 4.5-2.8.1-4.7-1.4-5.2-4.1-.4-2.4-.1-4.9-.2-7.3 0-1 .7-.7 1.2-.7s1.1-.1 1 .7c-.2 1.2-.1 2.3-.1 3.4zm-3.1 7.7c-1.7.5-2.6 0-2.9-1.6-.2-.9-.8-1.3-1.7-1.2-.6.1-1.2.1-1.8 0-1.8-.2-3.1.1-3.5 2.2-.3 1.3-1.5.5-2.5.8 1.1-2.4 2-4.6 3-6.8.6-1.4 1.2-2.7 1.8-4.1.3-.7.6-1.1 1.5-1.1 1 0 1.2.5 1.5 1.2 1.4 3.5 3 7 4.6 10.6zm-6.3-9.3c-.3.7-.5 1.1-.6 1.4-.4 1.1-1.1 2-1.2 3.2h3.5c.1 0 .1-.1.3-.2-.6-1.3-1.2-2.7-2-4.4zm72.2 9.7c-1.3 0-2.6-.4-3.7-1.1-.6-.3-.7-.7-.5-1.4.3-.9.6-1 1.4-.4 1 .7 2.2 1.1 3.5.9.9-.1 1.6-.4 1.7-1.4.1-.8-.5-1.3-1.2-1.6-1.1-.5-2.2-.8-3.3-1.3-1.6-.8-2.3-1.9-2.2-3.3.2-1.4 1.3-2.4 3-2.7 1.5-.3 2.9-.1 4.3.4.5.2 1.1.4.6 1.2-.3.6-.5 1-1.3.7-1.1-.5-2.4-.7-3.6-.3-.5.2-.9.4-.9.9-.1.6.2 1 .7 1.3.9.4 1.7.7 2.6 1 2.6.9 3.5 2.2 3.2 4.1-.1 1.9-1.8 3-4.3 3z"/><path class="st1" d="M41.9 20c-1.8.2-3.1 1.4-4.9 1.7-.7-1-.8-2.3-1.6-3.2-.6-2-1.4-3.8-2.4-5.6h4.9c.6 0 1.1 0 1.4.7.9 2.1 1.9 4.2 2.6 6.4zm45.5-3.7c-.2 1.4-.7 2.3-2.2 2-1.3-.3-1.6.3-1.6 1.6.1 2.4 0 4.9.1 7.3 0 .9-.3 1.1-1.1 1.1-.9 0-1.1-.2-1.1-1.1.1-2.6 0-5.2 0-7.8 0-.9-.2-1.3-1.1-1.2-.5.1-1 0-1.5 0-.8.1-1.1-.2-1.1-1.1 0-.9.4-.9 1.1-.9 2.7.1 5.6.1 8.5.1zm-47.8 12s0 .1 0 0c-2.2 1.4-4.3 2.8-6.5 4.1-.7.4-1.5.8-2.3 1.1-.8.3-1.5.2-2-.6-.8-1.5-1.6-3.1-2.4-4.6h4.8c2.9-.1 5.6 0 8.4 0z"/></svg>