<svg xmlns="http://www.w3.org/2000/svg" viewBox="0 0 170.6 43.2"><path fill="#f0f3f4" d="M0 0h170.6v43.2H0z"/><path d="M49.5 22.6c3 0 3 0 3 3 0 2.9-.2 3.1-3.1 4-3.3 1.1-6.5.3-8.2-2-1.9-2.4-1.9-6.7-.1-9.1 2-2.7 5.5-3 8.4-2 1.3.4 2.1 1.5 2.6 2.7.2.6.1.8-.5.9-1.1.2-2 .6-2.9-.8-1.1-1.8-4.5-1.2-5.5.8-1 1.8-.9 3.7 0 5.5 1 2 4.4 2.5 6.1 1 .5-.4.4-1 .3-1.5-.1-.5-.6-.4-1-.4h-.8c-.8.1-1.4 0-1.4-1.1 0-1 .4-1.3 1.3-1.2.7.3 1.2.2 1.8.2zm24.7-1.7c.3-.1.4-.2.6-.3 2.3-1.3 4.1-.9 5.7 1.3 1.4 1.8.7 6-1.1 7.4-1.1.9-2.6 1-3.9.4-.5-.2-1.1-1.6-1.7 0-.2.4-1.2.2-1.9.1-.6-.1-.4-.7-.4-1.1V17.5c0-1.1.5-1.3 1.4-1.3 1.1-.1 1.3.4 1.2 1.3.1 1.1.1 2.2.1 3.4zm4.3 4c0-.3 0-.8-.1-1.3-.2-.9-.7-1.6-1.7-1.7s-1.7.3-2.1 1.2c-.5 1.1-.5 2.3-.1 3.4.4 1 1.2 1.6 2.4 1.4 1.1-.2 1.5-1 1.6-2.1v-.9zm-13.8-5c2.7-.1 5 2.1 5 4.9 0 3.3-2.4 5.4-5.1 5.3-3-.1-5-2.1-5-5.1-.1-3.1 2-5.1 5.1-5.1zM67 25c0-1.8-.8-2.8-2.3-2.9-1.6 0-2.4 1-2.4 2.9 0 1.7.9 2.9 2.3 2.9C66 28 67 26.8 67 25zm21.4.8h-2.2c-1-.1-1 .5-.7 1.1.5 1.2 2.2 1.6 3.1.6.5-.6 2.1-.7 2.7-.3.4.3.1.6-.1.9-.9 1.8-2.5 2.1-4.3 2-1.8 0-3.1-.9-3.8-2.5-.8-1.7-.8-3.6 0-5.3.9-2.1 3.3-2.9 5.7-2.2 1.8.6 3.3 3 3 5-.1.6-.4.7-.9.7h-2.5zm-1.1-1.6c.5-.2 1.4.4 1.7-.3.2-.5-.1-1.3-.6-1.6-.8-.4-1.7-.6-2.4.1-.4.4-.8.9-.6 1.5.2.5.8.2 1.2.3h.7zm40.2 3.6c-.3.7-.6 1.5-1.4 1.9-1 .2-1-.5-1-1.2.1-1.5.8-2.8 1.1-4.3.1-.4.5-.9 0-1.2-.4-.2-.7.2-1 .4-1.5 1.2-2.1 2.8-2.6 4.5-.7 2-.6 2-2.9 1.7 1-3.4 2-6.8 3-10.1.2-.7.7-1.6-.8-1.9 1.2-.6 2.3-.6 3.3-.8.7-.1.5.3.4.7-.6 2-1.1 3.9-1.7 5.9-.1.3-.5.6.1.7.5.1.7-.1.8-.6.2-1.2 1.2-1.9 2.2-2.4 1.3-.6 2.2.2 2 1.6-.3 1.9-1 3.5-1.5 5.1zm-22.7-7.2c-.4-1-.5-2.2-1.9-2.4-.6-.1-1 0-1.2.6L99 28.1c-.3 1 .2 1.4 1 1.8h-5.6c1.4-.4 1.6-1.5 2-2.6.8-2.7 1.6-5.3 2.4-8 .3-1.1 0-1.2-1-1-1 .3-1.8.8-2.5 1.6-.1.2-.2.6-.6.4s-.2-.5-.1-.8c.2-.5.4-1 .5-1.5.2-.6.5-.7 1-.7h8.6c.7 0 .8.2.6.8 0 .8-.3 1.6-.5 2.5zm5 7c-1.1 2-3.2 3-5.2 2.5-1.3-.3-1.7-1.3-1.7-2.5 0-3.2 3-6.3 6.2-6.4 1.6 0 2.3 1 1.5 2.5s-2.2 2.3-3.9 2.5c-.8.1-1.5.2-1.3 1.4.2 1.1 1 1.3 1.9 1.2 1-.1 1.7-.8 2.5-1.2zm-4.2-1.8c1.8-.3 2.8-1.3 3-2.8.1-.4.3-.8-.2-1.1-.5-.2-.8.1-1.1.4-.8 1-1.4 2.1-1.7 3.5zM54.9 23v-5.6c0-1 .5-1.1 1.2-1 .6.1 1.5-.3 1.4.9v11.5c0 1.2-.9 1.1-1.6 1.2-.9.1-1-.4-1-1.2V23zm63.3 4.7c-.7 1.5-2 2.4-3.7 2.5-2.1.1-3.5-1.3-3.1-3.5.4-2.4 1.8-4.1 4-5.1.8-.4 2-.2 3.1 0 .6.1.9.7.9 1.3 0 .6-.2 1.1-.8 1.4-.5.3-.9.2-1.3-.2s-.4-.8 0-1.3c.2-.3.8-.5.3-.9-.4-.3-.8-.3-1.3 0-1.5.9-2.8 3.9-2.4 5.5.4 1.4 1.7 1.8 3.1 1.1.4-.3.8-.6 1.2-.8z" fill="#95a5a6"/></svg>