<svg version="1.1" id="Layer_1" xmlns="http://www.w3.org/2000/svg" x="0" y="0" viewBox="0 0 170.6 43.2" xml:space="preserve"><style/><path fill="#f0f3f4" d="M0 0h170.6v43.2H0z"/><path d="M69.8 27.5c-1.8 0-3.1-.2-5.1-1.5l-1.9 3.8c2.1 1.2 4.5 1.9 7 1.9h.3c2.2 0 3.9-.7 5.3-1.8l.2-.2-.6 1.6h5.6l.9-2.9c1 .3 2.1.5 3.3.5 1.2 0 2.3-.2 3.2-.5l.9 2.8h9.2v-5.9h2c4.8 0 7.7-2.5 7.7-6.6 0-4.6-2.8-6.7-8.7-6.7H93v14.7L87.6 12h-5.4l-4.6 12.3c-.5-3.1-3.7-4.2-6.2-5-1.7-.5-3.4-1.3-3.4-2.2 0-.7 1-1.4 2.8-1.3 1.2.1 2.3.2 4.5 1.2l2.1-3.7c-2-1-4.8-1.7-7-1.7-2.6 0-4.8.9-6.2 2.3-.9 1-1.5 2.2-1.5 3.6 0 1.9.7 3.2 2.1 4.3 1.2.9 2.8 1.5 4.2 1.9 1.7.5 3.1 1 3.1 2 0 .4-.1.7-.4 1-.3.6-1 .7-1.9.8zm28.4-11.4h1.4c1.8 0 3.3.6 3.3 2.5s-1.4 2.5-3.3 2.5h-1.4v-5zm-13.3 2l2 6.2c-.6.2-1.2.3-1.9.3s-1.4-.1-2-.4l1.9-6.1z" fill="#95a5a6"/></svg>