<svg xmlns="http://www.w3.org/2000/svg" viewBox="0 0 170.6 43.2"><path fill="#f0f3f4" d="M0 0h170.6v43.2H0z"/><path d="M109.2 32.4h-2.4v-1.9c-.2.3-.3.5-.5.8-.9 1.3-2.7 1.7-4 1-.8-.4-1.2-1.1-1.4-1.9-.1-.4-.1-.8-.1-1.2v-7.3h2.5v6.9c0 .3.1.7.1 1 .1.4.3.6.8.6.7 0 1.3-.3 1.7-.9.5-.7.7-1.4.8-2.3 0-.4.1-.7.1-1.1v-4.3h2.4v10.6zm-23.7 0h-2.4V21.9h2.4v1.9c.1-.2.2-.3.3-.5.9-1.6 2.6-1.9 3.9-1.5 1 .3 1.5 1.1 1.7 2.1.1.4.1.8.1 1.2v7.3H89v-6.7c0-.4-.1-.9-.2-1.3-.1-.3-.3-.5-.6-.5-.6-.1-1.1.1-1.5.5-.6.6-.9 1.3-1 2-.1.5-.2 1-.2 1.5v4.5zm-32.4 0h-2.3v-1.2l-.1.1c-.4.8-1.1 1.2-2 1.3-1 .1-1.9 0-2.7-.5-.7-.5-1.1-1.1-1.1-2 0-.5 0-1.1.2-1.6.4-.8 1-1.2 1.7-1.5.8-.4 1.7-.5 2.7-.6.4 0 .7 0 1.1-.1.1 0 .2-.1.2-.1 0-.6 0-1.2-.1-1.8-.2-.8-.8-1.1-1.7-1-.8.1-1.2.5-1.3 1.3v.3h-2.4c0-1 .3-1.9 1.2-2.6.7-.5 1.6-.7 2.5-.8.9 0 1.9 0 2.7.5.8.4 1.3 1.1 1.4 2.1v8.2zm-2.4-4.6s0-.1 0 0c-1 0-1.8.1-2.6.5-.6.3-.9.8-.9 1.5 0 .5.3.9.8 1 .6.2 1.2.1 1.6-.3.9-.7 1.1-1.7 1.1-2.7zm75-1.3h-6.2c-.1 1 .5 2.8 1.8 3.7 1.3.9 2.7.8 4.2.3v1.2c0 .6 0 .6-.6.7-1.3.3-2.6.4-3.8.1-1.9-.4-3-1.6-3.5-3.4-.3-1.1-.4-2.2-.3-3.3.1-.6.2-1.2.4-1.8.6-1.4 1.7-2.1 3.1-2.3.7-.1 1.4-.1 2.1.1 1.5.4 2.3 1.3 2.7 2.8.2.5.1 1.2.1 1.9zm-6.1-1.5h3.6c.2 0 .2-.1.2-.2-.1-.3-.1-.6-.3-.9-.7-1-2.3-1-3.1 0-.2.3-.4.6-.4 1.1zm-37.8 1.5h-6.3c.1 1.5.6 2.8 1.9 3.7 1.3.9 2.7.8 4.1.3V32c0 .1-.1.2-.1.2-1.5.4-3.1.6-4.6.1-1.3-.4-2.2-1.1-2.8-2.3-.9-1.9-1-3.8-.3-5.8.5-1.5 1.7-2.4 3.3-2.6.8-.1 1.6-.1 2.4.2 1.4.5 2.1 1.5 2.4 2.9-.1.6-.1 1.1 0 1.8zM75.6 25h3.8c.1-.4-.1-.8-.3-1.1-.6-.9-2.1-.9-2.9-.2-.4.4-.6.8-.6 1.3zm-12.6.4h-2.6c0-.3 0-.6-.1-.9-.1-.6-.4-1.1-1.1-1.2-.7-.2-1.3 0-1.8.6-.4.4-.5 1-.6 1.5-.1 1.1 0 2.2.5 3.2.7 1.3 1.8 2 3.3 2.1.7.1 1.5 0 2.2-.2v1.4l-.1.1c-1.8.5-3.5.7-5.3.1-1.3-.5-2.3-1.4-2.8-2.7-.6-1.6-.7-3.3-.2-5 .6-1.7 1.8-2.6 3.5-2.9.9-.1 1.8-.1 2.7.2 1.3.4 2 1.3 2.2 2.6.1.4.2.8.2 1.1zm9.3 5.3v1.4l-.1.1c-1.8.5-3.6.7-5.5 0-1.2-.5-2.1-1.4-2.6-2.6-.6-1.6-.7-3.3-.2-5 .5-1.6 1.6-2.6 3.3-2.9 1-.2 2-.2 3 .1 1.3.4 2 1.3 2.2 2.6.1.3.1.6.1 1h-2.6c0-.2 0-.4-.1-.7-.1-.8-.5-1.2-1.1-1.4-.8-.2-1.5.1-1.9.7-.4.5-.5 1.1-.5 1.7-.1 1.2.1 2.4.8 3.4.7 1.1 1.8 1.6 3 1.7h1.1c.3 0 .7-.1 1.1-.1zm19.8-7.1v-1.7h1.8c.3 0 .3 0 .3-.3v-1.9c0-.2.1-.3.2-.3.7-.3 1.5-.6 2.2-.9V22h3.1v1.7h-3.1v5.1c0 .4.1.9.2 1.3.2.6.6.9 1.2.9.4 0 .8-.1 1.2-.1h.2v1.6l-.1.1c-1 .1-2 .2-3.1.1-1.3-.2-1.9-1-2-2.4v-6.6c-.7-.1-1.4-.1-2.1-.1zm21.2-1.7v1.9c.7-1.4 1.7-2.2 3.4-2.2v2.5c-.4 0-.7.1-1.1.1-1.3.2-2.2 1.1-2.3 2.4-.1.5-.1 1.1-.1 1.6v4.1h-2.4V21.8c.8.1 1.6.1 2.5.1zM92.1 9.5c.6.2 1.1.4 1.6.7 1.9.8 3.9 1.6 5.8 2.4.2.1.2.1.2.3V14c0 .2-.1.3-.2.3-2.2.9-4.3 1.7-6.5 2.6-.3.1-.6.2-.9.4v-1.4c0-.2 0-.2.2-.3 1.7-.6 3.3-1.3 5-1.9.1 0 .2-.1.4-.1-.1-.1-.2-.1-.2-.1-1.7-.7-3.4-1.3-5.1-2-.2-.1-.2-.1-.2-.3-.1-.7-.1-1.2-.1-1.7z" fill="#95a5a6"/></svg>