<svg data-name="Layer 1" xmlns="http://www.w3.org/2000/svg" viewBox="0 0 170.63 43.23"><path fill="#f0f3f4" d="M0 0h170.63v43.23H0z"/><path d="M43 12a11.59 11.59 0 11-11.58 11.6A11.63 11.63 0 0143 12zm-4.86 20.26v-.16q-2.18-5.66-4.34-11.31c-.06-.16-.13-.32-.19-.49a.14.14 0 010 .06 9.76 9.76 0 00-.25 5.51A9.88 9.88 0 0037 31.53a7 7 0 001.14.73zm9.45.11l.16-.08a9.53 9.53 0 001.59-1.09 10 10 0 003-11s0-.1-.06-.13l-.06.14q-1.85 4.8-3.68 9.61l-1 2.51zm-1.19-4.25v-.1l4.13-10.7a.17.17 0 000-.19 10 10 0 00-2.43-2.07c-.1-.06-.1-.06-.19.06Q46.52 19 45.1 22.87c0 .1-.07.14-.18.14h-3.83c-.12 0-.17 0-.21-.16Q39.49 19 38.07 15.1c-.06-.16-.06-.16-.21-.07a10.28 10.28 0 00-2.55 2.19.24.24 0 00-.05.28q2 5 3.88 10.07l.22.55.07-.16 1.4-3.63c0-.11.1-.14.22-.14h3.68c.11 0 .16 0 .2.12.19.52.4 1 .59 1.55zm-3.51-1.79a.14.14 0 00-.06.1l-2.49 6.44a1 1 0 000 .17c0 .09 0 .14.11.16a10.17 10.17 0 004.78.08c.33-.07.34-.1.21-.42-.68-1.79-1.37-3.57-2.06-5.36zM43 20.9c.09-.26.17-.49.26-.72q1.1-3 2.21-6.1c0-.11 0-.14-.1-.17-.35-.07-.7-.15-1.06-.19a9.91 9.91 0 00-3.72.19c-.1 0-.12.05-.08.14.18.49.36 1 .53 1.47zm77.37-5.23c.35-.71.37-.71 1.79-.58v6.29a6.35 6.35 0 01-.08 1 2.86 2.86 0 01-2.48 2.57 5.6 5.6 0 01-3.71-.58l.51-1.29a18.87 18.87 0 002 .36c1.45.1 1.94-.45 1.82-2l-.31.14a2.92 2.92 0 01-4.54-1.95 5 5 0 01.1-2.69 2.86 2.86 0 014.42-1.58zm-.14 2.82v-.92c0-.79-.06-.88-.84-1.07l-.35-.06a1.52 1.52 0 00-1.77 1.26c-.29 1.25.11 2.38.94 2.67a.51.51 0 00.2 0c.47 0 .94-.08 1.41-.15a.48.48 0 00.42-.59c-.03-.35-.01-.75-.01-1.14zM101 17c-.1.28-.17.42-.22.58-.42 1.32-.84 2.63-1.24 4-.1.32-.24.44-.57.41-.55 0-1.24.17-1.6-.09s-.4-1-.56-1.49c-.49-1.57-1-3.14-1.44-4.71-.06-.18-.1-.36-.16-.57h2l1.25 4.63h.09c.41-1.33.86-2.66 1.23-4 .14-.53.35-.7.9-.68 1.4 0 1.4 0 1.82 1.37.33 1.09.67 2.19 1 3.39a4.46 4.46 0 00.16-.42c.35-1.31.7-2.61 1-3.92.07-.28.18-.43.51-.41h1.53a3.06 3.06 0 01-.09.44c-.61 2-1.23 4-1.83 6-.09.31-.22.45-.56.42-.54 0-1.23.17-1.6-.09s-.41-1-.58-1.48A43.58 43.58 0 00101 17zm-36.58 2.77q.77-2.41 1.55-4.83c.25-.78.51-1.56.74-2.35a.46.46 0 01.54-.39h1.76c-.07.24-.11.42-.17.58-1 2.9-2.08 5.8-3.1 8.7-.12.35-.28.49-.65.47-.65-.05-1.45.18-1.9-.13s-.5-1.11-.71-1.7l-2.61-7.3c-.06-.17-.11-.35-.21-.62h2c.11 0 .25.25.3.41q1.07 3.27 2.12 6.54c.07.19.14.38.2.57zM81.53 12h1.86v6l.19.15a1.39 1.39 0 01.16-.35c.62-.82 1.24-1.64 1.9-2.43a1 1 0 01.63-.3h1.81l-2.72 3.36 2.84 3.53h-2.19c-.12 0-.26-.19-.36-.32-.71-.9-1.41-1.81-2.2-2.84v3.14h-1.92zm32.82 8.75V22a1.87 1.87 0 01-2.37-.64l-.41.26a3.53 3.53 0 01-2.1.55 2 2 0 01-2-1.92 1.94 1.94 0 011.63-2.3 11.51 11.51 0 011.68-.2h1c.14-.77-.13-1.26-.83-1.26a23 23 0 00-2.61.28 9.38 9.38 0 01-.33-1.07.44.44 0 01.23-.35 6 6 0 013.41-.41 2.34 2.34 0 012.07 2.43v2.67c-.07.65-.07.65.63.71zm-2.58-1.86c-.73.1-1.37.16-2 .29a.59.59 0 00-.49.73 1 1 0 00.51.67 2.27 2.27 0 001.82-.31.39.39 0 00.14-.3c.03-.3.02-.61.02-1.08zm-39.5 3.28a3.41 3.41 0 01-3.64-3.63 3.64 3.64 0 117.28-.06 3.44 3.44 0 01-3.64 3.69zm1.66-3.82a6 6 0 00-.11-.71 1.54 1.54 0 00-1.57-1.22 1.45 1.45 0 00-1.53 1.24 4.86 4.86 0 000 1.86 1.47 1.47 0 001.85 1c.92-.15 1.36-.85 1.36-2.17zm51.65.71A1.41 1.41 0 00127 20.6c.81 0 1.61-.17 2.48-.27l.41 1.28a5.63 5.63 0 01-4.51.19 3.3 3.3 0 01-1.83-3.3 3.46 3.46 0 014.63-3.5 2.72 2.72 0 012 2.8c0 1.28 0 1.28-1.23 1.28zm0-1.24h2.83c.12-1-.34-1.54-1.29-1.57a1.42 1.42 0 00-1.53 1.57zm8.18 4.1h-1.89v-6.8c1-.22 1.4-.12 1.72.43a10.18 10.18 0 012-.67 2.3 2.3 0 012.76 2.28c.09 1.57 0 3.14 0 4.75h-1.91v-4.09c0-1.12-.69-1.61-1.78-1.31-.78.22-.94.43-.94 1.26zm-45.01-.39l.55-1.33c.56.16 1.06.34 1.57.45a3.84 3.84 0 001.07 0c.34 0 .65-.17.68-.58s-.23-.59-.56-.69c-.48-.14-1-.24-1.44-.37A2 2 0 0188.91 17a2.09 2.09 0 011.85-2 5.9 5.9 0 013.58.39l-.5 1.31c-.53-.11-1-.25-1.52-.32a2.5 2.5 0 00-1 0c-.2.06-.47.32-.47.48a.82.82 0 00.4.61 6.45 6.45 0 001.18.35 8 8 0 01.83.26 1.88 1.88 0 011.27 1.82 2 2 0 01-1.25 2 5.32 5.32 0 01-3.67 0c-.3-.12-.55-.25-.86-.37zM79.23 12v8c0 .69 0 .69.68.72h.24c0 .05.07.08.06.1-.1.4.32 1.06-.26 1.19-1.07.23-2.07.17-2.44-.72a2.66 2.66 0 01-.2-1v-8.3zm11.21 13.11v7.28h-1v-7.28zm6.7 0V26h-2.21v6.35h-1V26h-2.2v-.93zm5.86 6.46a1.32 1.32 0 001.47-1.06c.07-.78-.58-1.15-1.23-1.3l-.94-.23c-1.55-.39-1.78-1.27-1.78-1.9a2.2 2.2 0 012.36-2 2.14 2.14 0 012.34 2.13h-1a1.23 1.23 0 00-1.39-1.21 1.24 1.24 0 00-1.37 1.09c0 .32.12.8 1 1l1 .23c1.36.35 2.09 1.12 1.94 2.28a2.23 2.23 0 01-2.43 1.9 2.39 2.39 0 01-2.54-2.2h1a1.47 1.47 0 001.57 1.27zm8.36-1.28h-4a1.53 1.53 0 001.64 1.34 1.62 1.62 0 001.42-.76l.82.31a2.44 2.44 0 01-2.27 1.31 2.57 2.57 0 010-5.14 2.39 2.39 0 012.45 2.56c-.05.09-.05.27-.06.38zm-.94-.75a1.45 1.45 0 00-1.5-1.32 1.49 1.49 0 00-1.56 1.32zm3.14 2.85h-1v-4.93h1v1.1c.25-.86.72-1.21 1.37-1.21a1.72 1.72 0 01.85.19l-.14.9a1.7 1.7 0 00-.73-.17c-1 0-1.35 1-1.35 2.32zm3.6-4.93l1.5 3.7 1.48-3.7h1l-2.06 4.93h-.92l-2-4.93zm5.47-2.46a.62.62 0 110 1.24.62.62 0 110-1.24zm.47 2.44h-.95v4.93h.95zm3.9-.09a2.55 2.55 0 011.9.79l-.73.61a1.68 1.68 0 00-1.17-.46 1.59 1.59 0 00-1.66 1.62 1.62 1.62 0 001.66 1.65 1.66 1.66 0 001.17-.48l.74.61a2.56 2.56 0 01-1.91.8 2.57 2.57 0 110-5.14zm7.62 2.94h-4a1.53 1.53 0 001.59 1.34 1.6 1.6 0 001.42-.76l.82.31a2.44 2.44 0 01-2.27 1.31 2.57 2.57 0 010-5.14 2.38 2.38 0 012.45 2.56c0 .09 0 .27-.01.38zm-.94-.75a1.44 1.44 0 00-1.5-1.32 1.49 1.49 0 00-1.56 1.32zm1.98-.93a1.61 1.61 0 011.71-1.26 1.54 1.54 0 011.71 1.39h-.92a.7.7 0 00-.77-.56.72.72 0 00-.74.45.57.57 0 000 .39.91.91 0 00.58.38l.73.18a1.42 1.42 0 011.29 1.42c0 .92-.89 1.48-1.91 1.48a1.73 1.73 0 01-1.84-1.58h.88a.75.75 0 00.4.56 1.28 1.28 0 00.78.17.71.71 0 00.75-.65c0-.36-.3-.54-.66-.62l-.67-.16c-.9-.2-1.41-.69-1.32-1.59z" fill="#95a5a6"/></svg>